<svg width="21" height="40" viewBox="0 0 21 40" fill="none" xmlns="http://www.w3.org/2000/svg">
<path d="M2.50648 26.0562L15.6195 39.1692C16.1548 39.7013 16.8788 40 17.6336 40C18.3883 40 19.1124 39.7013 19.6477 39.1692C19.9155 38.9037 20.128 38.5877 20.273 38.2396C20.4181 37.8914 20.4927 37.518 20.4927 37.1409C20.4927 36.7637 20.4181 36.3903 20.273 36.0422C20.128 35.694 19.9155 35.3781 19.6477 35.1125L6.5061 22.028C6.23833 21.7625 6.02579 21.4465 5.88075 21.0984C5.73571 20.7502 5.66104 20.3768 5.66104 19.9997C5.66104 19.6225 5.73571 19.2491 5.88075 18.901C6.02579 18.5529 6.23833 18.2369 6.5061 17.9713L19.6477 4.88685C20.1856 4.35268 20.4894 3.62669 20.492 2.86858C20.4947 2.11047 20.1961 1.38235 19.662 0.844387C19.1278 0.306427 18.4018 0.00269699 17.6437 1.90735e-05C16.8856 -0.00265884 16.1575 0.295937 15.6195 0.830105L2.50648 13.9431C0.901491 15.5501 -1.90735e-05 17.7285 -1.90735e-05 19.9997C-1.90735e-05 22.2709 0.901491 24.4492 2.50648 26.0562Z" fill="white"/>
</svg>
